<?xml version="1.0" encoding="UTF-8" standalone="no"?>
<!-- Generator: IcoMoon.io -->

<svg
   xmlns:dc="http://purl.org/dc/elements/1.1/"
   xmlns:cc="http://creativecommons.org/ns#"
   xmlns:rdf="http://www.w3.org/1999/02/22-rdf-syntax-ns#"
   xmlns:svg="http://www.w3.org/2000/svg"
   xmlns="http://www.w3.org/2000/svg"
   xmlns:sodipodi="http://sodipodi.sourceforge.net/DTD/sodipodi-0.dtd"
   xmlns:inkscape="http://www.inkscape.org/namespaces/inkscape"
   width="512"
   height="512"
   viewBox="0 0 512 512"
   fill="#000000"
   id="svg2"
   version="1.1"
   inkscape:version="0.48.3.1 r9886"
   sodipodi:docname="thumbs-up.svg"
   inkscape:export-filename="/home/ceci/Desktop/agilesvg/not-helpful.png"
   inkscape:export-xdpi="2.8099999"
   inkscape:export-ydpi="2.8099999">
  <metadata
     id="metadata73">
    <rdf:RDF>
      <cc:Work
         rdf:about="">
        <dc:format>image/svg+xml</dc:format>
        <dc:type
           rdf:resource="http://purl.org/dc/dcmitype/StillImage" />
      </cc:Work>
    </rdf:RDF>
  </metadata>
  <defs
     id="defs71" />
  <sodipodi:namedview
     pagecolor="#ffffff"
     bordercolor="#666666"
     borderopacity="1"
     objecttolerance="10"
     gridtolerance="10"
     guidetolerance="10"
     inkscape:pageopacity="0"
     inkscape:pageshadow="2"
     inkscape:window-width="1366"
     inkscape:window-height="744"
     id="namedview69"
     showgrid="false"
     inkscape:zoom="0.921875"
     inkscape:cx="219.52961"
     inkscape:cy="196.29609"
     inkscape:window-x="0"
     inkscape:window-y="24"
     inkscape:window-maximized="1"
     inkscape:current-layer="svg2" />
  <path
     d="m 456.85286,288 c 36.5,0 16,96 -16,96 16,0 0,80 -32,80 0,32 -32,48 -64,48 -135.17597,0 -87.63197,-33.825 -223.99997,-48 l 0,-256 C 241.31389,171.866 360.85286,81.287995 360.85286,-4.45e-6 c 26.5,0 96,31.99999945 0,192.00000445 0,0 80,0 96,0 48,0 32,96 0,96 z m -367.999975,-80 0,256 32.000005,0 0,16 -64.000005,0 c -17.6,0 -32,-21.6 -32,-48 l 0,-192 c 0,-26.4 14.4,-48 32,-48 l 64.000005,0 0,16 -32.000005,0 z"
     id="path67"
     inkscape:connector-curvature="0" />
</svg>
